<?xml version="1.0" encoding="UTF-8"?>
<svg width="120px" height="120px" viewBox="0 0 120 120" version="1.1" xmlns="http://www.w3.org/2000/svg" xmlns:xlink="http://www.w3.org/1999/xlink">
    <!-- Generator: Sketch 42 (36781) - http://www.bohemiancoding.com/sketch -->
    <title>Group 3</title>
    <desc>Created with Sketch.</desc>
    <defs>
        <rect id="path-1" x="0" y="0" width="120" height="120"></rect>
        <mask id="mask-2" maskContentUnits="userSpaceOnUse" maskUnits="objectBoundingBox" x="0" y="0" width="120" height="120" fill="white">
            <use xlink:href="#path-1"></use>
        </mask>
    </defs>
    <g id="B-Business" stroke="none" stroke-width="1" fill="none" fill-rule="evenodd">
        <g id="B-Business-控制台-b_商户-22_EditMerchant-01" transform="translate(-788.000000, -2793.000000)">
            <g id="Group-3" transform="translate(788.000000, 2793.000000)">
                <use id="Rectangle-22-Copy-3" stroke="#E1E7EB" mask="url(#mask-2)" stroke-width="2" fill="#F9FCFF" xlink:href="#path-1"></use>
                <text id="添加图片-copy-3" font-family="PingFangSC-Light, 蘋方-簡" font-size="12" font-weight="300" line-spacing="20" letter-spacing="0.200000003" fill="#28292B">
                    <tspan x="36" y="78">添加图</tspan>
                    <tspan x="72.6" y="78">片</tspan>
                </text>
                <path d="M52.94,44.9 C52.42,44.38 52.16,43.74 52.16,43 C52.16,42.26 52.42,41.62 52.94,41.1 C53.46,40.58 54.1,40.32 54.84,40.32 C55.58,40.32 56.22,40.58 56.74,41.1 C57.26,41.62 57.52,42.26 57.52,43 C57.52,43.74 57.26,44.38 56.74,44.9 C56.22,45.42 55.58,45.68 54.84,45.68 C54.1,45.68 53.46,45.42 52.94,44.9 L52.94,44.9 Z M50,52.74 L54.94,49.1 L60.9,51.72 L59.42,48.6 L65.28,42.24 L70,48 L70,38 L50,38 L50,52.74 Z M48,57.12 L48,36.88 C48,36.4 48.4,36 48.88,36 L71.12,36 C71.62,36 72,36.4 72,36.88 L72,57.12 C72,57.6 71.62,58 71.12,58 L48.88,58 C48.4,58 48,57.6 48,57.12 L48,57.12 Z" id="Fill-1-Copy-3" fill="#E2E6ED"></path>
            </g>
        </g>
    </g>
</svg>